<mxfile host="app.diagrams.net" modified="2024-05-17T07:08:26.748Z" agent="Mozilla/5.0 (Windows NT 10.0; Win64; x64) AppleWebKit/537.36 (KHTML, like Gecko) Chrome/123.0.0.0 Safari/537.36 OPR/109.0.0.0" etag="TbFMns8ivqWYlVM1MMtk" version="24.4.3" type="github">
  <diagram id="R2lEEEUBdFMjLlhIrx00" name="Page-1">
    <mxGraphModel dx="5198" dy="1508" grid="1" gridSize="10" guides="1" tooltips="1" connect="1" arrows="1" fold="1" page="1" pageScale="1" pageWidth="850" pageHeight="1100" math="0" shadow="0" extFonts="Permanent Marker^https://fonts.googleapis.com/css?family=Permanent+Marker">
      <root>
        <mxCell id="0" />
        <mxCell id="1" parent="0" />
        <mxCell id="77vhPP4-ldF0HwKtBxAo-1" value="User" style="whiteSpace=wrap;html=1;align=center;" vertex="1" parent="1">
          <mxGeometry x="-290" y="240" width="100" height="40" as="geometry" />
        </mxCell>
        <mxCell id="77vhPP4-ldF0HwKtBxAo-2" value="userID" style="ellipse;whiteSpace=wrap;html=1;align=center;fontStyle=4;" vertex="1" parent="1">
          <mxGeometry x="-240" y="150" width="100" height="40" as="geometry" />
        </mxCell>
        <mxCell id="77vhPP4-ldF0HwKtBxAo-3" value="username" style="ellipse;whiteSpace=wrap;html=1;align=center;" vertex="1" parent="1">
          <mxGeometry x="-360" y="140" width="100" height="40" as="geometry" />
        </mxCell>
        <mxCell id="77vhPP4-ldF0HwKtBxAo-4" value="role" style="ellipse;whiteSpace=wrap;html=1;align=center;" vertex="1" parent="1">
          <mxGeometry x="-140" y="170" width="100" height="40" as="geometry" />
        </mxCell>
        <mxCell id="77vhPP4-ldF0HwKtBxAo-5" value="password" style="ellipse;whiteSpace=wrap;html=1;align=center;" vertex="1" parent="1">
          <mxGeometry x="-440" y="180" width="100" height="40" as="geometry" />
        </mxCell>
        <mxCell id="77vhPP4-ldF0HwKtBxAo-9" value="" style="endArrow=none;html=1;rounded=0;exitX=0.5;exitY=1;exitDx=0;exitDy=0;entryX=0.5;entryY=0;entryDx=0;entryDy=0;" edge="1" parent="1" source="77vhPP4-ldF0HwKtBxAo-2" target="77vhPP4-ldF0HwKtBxAo-1">
          <mxGeometry width="50" height="50" relative="1" as="geometry">
            <mxPoint x="-140" y="360" as="sourcePoint" />
            <mxPoint x="-90" y="310" as="targetPoint" />
          </mxGeometry>
        </mxCell>
        <mxCell id="77vhPP4-ldF0HwKtBxAo-10" value="" style="endArrow=none;html=1;rounded=0;exitX=1;exitY=1;exitDx=0;exitDy=0;entryX=0.25;entryY=0;entryDx=0;entryDy=0;" edge="1" parent="1" source="77vhPP4-ldF0HwKtBxAo-3" target="77vhPP4-ldF0HwKtBxAo-1">
          <mxGeometry width="50" height="50" relative="1" as="geometry">
            <mxPoint x="-140" y="360" as="sourcePoint" />
            <mxPoint x="-150" y="334" as="targetPoint" />
          </mxGeometry>
        </mxCell>
        <mxCell id="77vhPP4-ldF0HwKtBxAo-11" value="" style="endArrow=none;html=1;rounded=0;exitX=1;exitY=1;exitDx=0;exitDy=0;entryX=0;entryY=0.25;entryDx=0;entryDy=0;" edge="1" parent="1" source="77vhPP4-ldF0HwKtBxAo-5" target="77vhPP4-ldF0HwKtBxAo-1">
          <mxGeometry width="50" height="50" relative="1" as="geometry">
            <mxPoint x="-140" y="360" as="sourcePoint" />
            <mxPoint x="-250" y="280" as="targetPoint" />
            <Array as="points" />
          </mxGeometry>
        </mxCell>
        <mxCell id="77vhPP4-ldF0HwKtBxAo-12" value="" style="endArrow=none;html=1;rounded=0;exitX=0.75;exitY=0;exitDx=0;exitDy=0;entryX=0.225;entryY=1.001;entryDx=0;entryDy=0;entryPerimeter=0;" edge="1" parent="1" source="77vhPP4-ldF0HwKtBxAo-1" target="77vhPP4-ldF0HwKtBxAo-4">
          <mxGeometry width="50" height="50" relative="1" as="geometry">
            <mxPoint x="-140" y="360" as="sourcePoint" />
            <mxPoint x="-90" y="310" as="targetPoint" />
          </mxGeometry>
        </mxCell>
        <mxCell id="77vhPP4-ldF0HwKtBxAo-22" value="Book" style="whiteSpace=wrap;html=1;align=center;" vertex="1" parent="1">
          <mxGeometry x="-290" y="670" width="100" height="40" as="geometry" />
        </mxCell>
        <mxCell id="77vhPP4-ldF0HwKtBxAo-23" value="bookID" style="ellipse;whiteSpace=wrap;html=1;align=center;fontStyle=4;" vertex="1" parent="1">
          <mxGeometry x="-160" y="570" width="100" height="40" as="geometry" />
        </mxCell>
        <mxCell id="77vhPP4-ldF0HwKtBxAo-24" value="author" style="ellipse;whiteSpace=wrap;html=1;align=center;" vertex="1" parent="1">
          <mxGeometry x="-450" y="740" width="100" height="40" as="geometry" />
        </mxCell>
        <mxCell id="77vhPP4-ldF0HwKtBxAo-25" value="title" style="ellipse;whiteSpace=wrap;html=1;align=center;" vertex="1" parent="1">
          <mxGeometry x="-110" y="670" width="100" height="40" as="geometry" />
        </mxCell>
        <mxCell id="77vhPP4-ldF0HwKtBxAo-26" value="publicationYear" style="ellipse;whiteSpace=wrap;html=1;align=center;" vertex="1" parent="1">
          <mxGeometry x="-400" y="790" width="100" height="40" as="geometry" />
        </mxCell>
        <mxCell id="77vhPP4-ldF0HwKtBxAo-27" value="" style="endArrow=none;html=1;rounded=0;exitX=0.5;exitY=1;exitDx=0;exitDy=0;entryX=0.75;entryY=0;entryDx=0;entryDy=0;" edge="1" source="77vhPP4-ldF0HwKtBxAo-23" target="77vhPP4-ldF0HwKtBxAo-22" parent="1">
          <mxGeometry width="50" height="50" relative="1" as="geometry">
            <mxPoint x="-270" y="720" as="sourcePoint" />
            <mxPoint x="-220" y="670" as="targetPoint" />
          </mxGeometry>
        </mxCell>
        <mxCell id="77vhPP4-ldF0HwKtBxAo-28" value="" style="endArrow=none;html=1;rounded=0;exitX=1;exitY=0;exitDx=0;exitDy=0;entryX=0;entryY=0.75;entryDx=0;entryDy=0;" edge="1" source="77vhPP4-ldF0HwKtBxAo-24" target="77vhPP4-ldF0HwKtBxAo-22" parent="1">
          <mxGeometry width="50" height="50" relative="1" as="geometry">
            <mxPoint x="-270" y="740" as="sourcePoint" />
            <mxPoint x="-280" y="714" as="targetPoint" />
          </mxGeometry>
        </mxCell>
        <mxCell id="77vhPP4-ldF0HwKtBxAo-29" value="" style="endArrow=none;html=1;rounded=0;exitX=1;exitY=0;exitDx=0;exitDy=0;entryX=0;entryY=1;entryDx=0;entryDy=0;" edge="1" source="77vhPP4-ldF0HwKtBxAo-26" target="77vhPP4-ldF0HwKtBxAo-22" parent="1">
          <mxGeometry width="50" height="50" relative="1" as="geometry">
            <mxPoint x="-270" y="740" as="sourcePoint" />
            <mxPoint x="-220" y="690" as="targetPoint" />
            <Array as="points" />
          </mxGeometry>
        </mxCell>
        <mxCell id="77vhPP4-ldF0HwKtBxAo-30" value="" style="endArrow=none;html=1;rounded=0;entryX=0;entryY=0.5;entryDx=0;entryDy=0;exitX=1;exitY=0.75;exitDx=0;exitDy=0;" edge="1" source="77vhPP4-ldF0HwKtBxAo-22" target="77vhPP4-ldF0HwKtBxAo-25" parent="1">
          <mxGeometry width="50" height="50" relative="1" as="geometry">
            <mxPoint x="-190" y="690" as="sourcePoint" />
            <mxPoint x="-220" y="690" as="targetPoint" />
          </mxGeometry>
        </mxCell>
        <mxCell id="77vhPP4-ldF0HwKtBxAo-31" value="quantity" style="ellipse;whiteSpace=wrap;html=1;align=center;" vertex="1" parent="1">
          <mxGeometry x="-300" y="760" width="100" height="40" as="geometry" />
        </mxCell>
        <mxCell id="77vhPP4-ldF0HwKtBxAo-32" value="price" style="ellipse;whiteSpace=wrap;html=1;align=center;" vertex="1" parent="1">
          <mxGeometry x="-190" y="800" width="100" height="40" as="geometry" />
        </mxCell>
        <mxCell id="77vhPP4-ldF0HwKtBxAo-33" value="" style="endArrow=none;html=1;rounded=0;exitX=0.5;exitY=0;exitDx=0;exitDy=0;entryX=0.25;entryY=1;entryDx=0;entryDy=0;" edge="1" parent="1" source="77vhPP4-ldF0HwKtBxAo-31" target="77vhPP4-ldF0HwKtBxAo-22">
          <mxGeometry width="50" height="50" relative="1" as="geometry">
            <mxPoint x="-400" y="720" as="sourcePoint" />
            <mxPoint x="-350" y="670" as="targetPoint" />
          </mxGeometry>
        </mxCell>
        <mxCell id="77vhPP4-ldF0HwKtBxAo-34" value="" style="endArrow=none;html=1;rounded=0;exitX=0;exitY=0;exitDx=0;exitDy=0;entryX=0.5;entryY=1;entryDx=0;entryDy=0;" edge="1" parent="1" source="77vhPP4-ldF0HwKtBxAo-32" target="77vhPP4-ldF0HwKtBxAo-22">
          <mxGeometry width="50" height="50" relative="1" as="geometry">
            <mxPoint x="-400" y="720" as="sourcePoint" />
            <mxPoint x="-350" y="670" as="targetPoint" />
          </mxGeometry>
        </mxCell>
        <mxCell id="77vhPP4-ldF0HwKtBxAo-62" value="&lt;u&gt;CartItemID&lt;/u&gt;" style="ellipse;whiteSpace=wrap;html=1;align=center;fontStyle=4;" vertex="1" parent="1">
          <mxGeometry x="-150" y="470" width="100" height="40" as="geometry" />
        </mxCell>
        <mxCell id="77vhPP4-ldF0HwKtBxAo-63" value="quantity" style="ellipse;whiteSpace=wrap;html=1;align=center;" vertex="1" parent="1">
          <mxGeometry x="-210" y="420" width="100" height="40" as="geometry" />
        </mxCell>
        <mxCell id="77vhPP4-ldF0HwKtBxAo-66" value="" style="endArrow=none;html=1;rounded=0;exitX=0;exitY=0.5;exitDx=0;exitDy=0;entryX=1;entryY=0.75;entryDx=0;entryDy=0;" edge="1" parent="1" source="77vhPP4-ldF0HwKtBxAo-62" target="77vhPP4-ldF0HwKtBxAo-151">
          <mxGeometry width="50" height="50" relative="1" as="geometry">
            <mxPoint x="-200" y="630" as="sourcePoint" />
            <mxPoint x="-210" y="485" as="targetPoint" />
          </mxGeometry>
        </mxCell>
        <mxCell id="77vhPP4-ldF0HwKtBxAo-67" value="" style="endArrow=none;html=1;rounded=0;exitX=0;exitY=1;exitDx=0;exitDy=0;entryX=0.75;entryY=0;entryDx=0;entryDy=0;" edge="1" parent="1" source="77vhPP4-ldF0HwKtBxAo-63" target="77vhPP4-ldF0HwKtBxAo-151">
          <mxGeometry width="50" height="50" relative="1" as="geometry">
            <mxPoint x="-200" y="630" as="sourcePoint" />
            <mxPoint x="-210" y="485" as="targetPoint" />
          </mxGeometry>
        </mxCell>
        <mxCell id="77vhPP4-ldF0HwKtBxAo-70" value="Comment" style="shape=ext;margin=3;double=1;whiteSpace=wrap;html=1;align=center;" vertex="1" parent="1">
          <mxGeometry x="100" y="240" width="100" height="40" as="geometry" />
        </mxCell>
        <mxCell id="77vhPP4-ldF0HwKtBxAo-71" value="&lt;u&gt;commentID&lt;/u&gt;" style="ellipse;whiteSpace=wrap;html=1;align=center;" vertex="1" parent="1">
          <mxGeometry x="-10" y="150" width="100" height="40" as="geometry" />
        </mxCell>
        <mxCell id="77vhPP4-ldF0HwKtBxAo-74" value="rating" style="ellipse;whiteSpace=wrap;html=1;align=center;" vertex="1" parent="1">
          <mxGeometry x="-60" y="300" width="100" height="40" as="geometry" />
        </mxCell>
        <mxCell id="77vhPP4-ldF0HwKtBxAo-75" value="comment" style="ellipse;whiteSpace=wrap;html=1;align=center;" vertex="1" parent="1">
          <mxGeometry x="-20" y="350" width="100" height="40" as="geometry" />
        </mxCell>
        <mxCell id="77vhPP4-ldF0HwKtBxAo-76" value="" style="endArrow=none;html=1;rounded=0;exitX=0;exitY=0;exitDx=0;exitDy=0;entryX=0.5;entryY=1;entryDx=0;entryDy=0;" edge="1" parent="1" source="77vhPP4-ldF0HwKtBxAo-70" target="77vhPP4-ldF0HwKtBxAo-71">
          <mxGeometry width="50" height="50" relative="1" as="geometry">
            <mxPoint x="180" y="340" as="sourcePoint" />
            <mxPoint x="120" y="260" as="targetPoint" />
          </mxGeometry>
        </mxCell>
        <mxCell id="77vhPP4-ldF0HwKtBxAo-78" value="" style="endArrow=none;html=1;rounded=0;exitX=0;exitY=0.5;exitDx=0;exitDy=0;entryX=1;entryY=0.5;entryDx=0;entryDy=0;" edge="1" parent="1" source="77vhPP4-ldF0HwKtBxAo-70" target="77vhPP4-ldF0HwKtBxAo-74">
          <mxGeometry width="50" height="50" relative="1" as="geometry">
            <mxPoint x="180" y="340" as="sourcePoint" />
            <mxPoint x="230" y="290" as="targetPoint" />
          </mxGeometry>
        </mxCell>
        <mxCell id="77vhPP4-ldF0HwKtBxAo-79" value="" style="endArrow=none;html=1;rounded=0;exitX=0;exitY=1;exitDx=0;exitDy=0;entryX=1;entryY=0;entryDx=0;entryDy=0;" edge="1" parent="1" source="77vhPP4-ldF0HwKtBxAo-70" target="77vhPP4-ldF0HwKtBxAo-75">
          <mxGeometry width="50" height="50" relative="1" as="geometry">
            <mxPoint x="180" y="340" as="sourcePoint" />
            <mxPoint x="230" y="290" as="targetPoint" />
          </mxGeometry>
        </mxCell>
        <mxCell id="77vhPP4-ldF0HwKtBxAo-82" value="Order" style="shape=ext;margin=3;double=1;whiteSpace=wrap;html=1;align=center;" vertex="1" parent="1">
          <mxGeometry x="-640" y="468" width="100" height="40" as="geometry" />
        </mxCell>
        <mxCell id="77vhPP4-ldF0HwKtBxAo-83" value="&lt;u&gt;orderID&lt;/u&gt;" style="ellipse;whiteSpace=wrap;html=1;align=center;" vertex="1" parent="1">
          <mxGeometry x="-740" y="378" width="100" height="40" as="geometry" />
        </mxCell>
        <mxCell id="77vhPP4-ldF0HwKtBxAo-85" value="status" style="ellipse;whiteSpace=wrap;html=1;align=center;" vertex="1" parent="1">
          <mxGeometry x="-720" y="568" width="100" height="40" as="geometry" />
        </mxCell>
        <mxCell id="77vhPP4-ldF0HwKtBxAo-86" value="address" style="ellipse;whiteSpace=wrap;html=1;align=center;" vertex="1" parent="1">
          <mxGeometry x="-790" y="438" width="100" height="40" as="geometry" />
        </mxCell>
        <mxCell id="77vhPP4-ldF0HwKtBxAo-87" value="totalPrice" style="ellipse;whiteSpace=wrap;html=1;align=center;" vertex="1" parent="1">
          <mxGeometry x="-800" y="508" width="100" height="40" as="geometry" />
        </mxCell>
        <mxCell id="77vhPP4-ldF0HwKtBxAo-88" value="" style="endArrow=none;html=1;rounded=0;exitX=0;exitY=0;exitDx=0;exitDy=0;entryX=0.5;entryY=1;entryDx=0;entryDy=0;" edge="1" parent="1" source="77vhPP4-ldF0HwKtBxAo-82" target="77vhPP4-ldF0HwKtBxAo-83">
          <mxGeometry width="50" height="50" relative="1" as="geometry">
            <mxPoint x="-590" y="508" as="sourcePoint" />
            <mxPoint x="-670" y="418" as="targetPoint" />
          </mxGeometry>
        </mxCell>
        <mxCell id="77vhPP4-ldF0HwKtBxAo-90" value="" style="endArrow=none;html=1;rounded=0;exitX=0;exitY=0.5;exitDx=0;exitDy=0;entryX=1;entryY=0.5;entryDx=0;entryDy=0;" edge="1" parent="1" source="77vhPP4-ldF0HwKtBxAo-82" target="77vhPP4-ldF0HwKtBxAo-86">
          <mxGeometry width="50" height="50" relative="1" as="geometry">
            <mxPoint x="-590" y="508" as="sourcePoint" />
            <mxPoint x="-540" y="458" as="targetPoint" />
          </mxGeometry>
        </mxCell>
        <mxCell id="77vhPP4-ldF0HwKtBxAo-91" value="" style="endArrow=none;html=1;rounded=0;entryX=1;entryY=0;entryDx=0;entryDy=0;exitX=0;exitY=0.75;exitDx=0;exitDy=0;" edge="1" parent="1" source="77vhPP4-ldF0HwKtBxAo-82" target="77vhPP4-ldF0HwKtBxAo-87">
          <mxGeometry width="50" height="50" relative="1" as="geometry">
            <mxPoint x="-650" y="508" as="sourcePoint" />
            <mxPoint x="-540" y="458" as="targetPoint" />
          </mxGeometry>
        </mxCell>
        <mxCell id="77vhPP4-ldF0HwKtBxAo-92" value="" style="endArrow=none;html=1;rounded=0;entryX=0.5;entryY=0;entryDx=0;entryDy=0;" edge="1" parent="1" target="77vhPP4-ldF0HwKtBxAo-85">
          <mxGeometry width="50" height="50" relative="1" as="geometry">
            <mxPoint x="-610" y="508" as="sourcePoint" />
            <mxPoint x="-540" y="458" as="targetPoint" />
          </mxGeometry>
        </mxCell>
        <mxCell id="77vhPP4-ldF0HwKtBxAo-93" value="email" style="ellipse;whiteSpace=wrap;html=1;align=center;" vertex="1" parent="1">
          <mxGeometry x="-610" y="568" width="100" height="40" as="geometry" />
        </mxCell>
        <mxCell id="77vhPP4-ldF0HwKtBxAo-94" value="" style="endArrow=none;html=1;rounded=0;entryX=0;entryY=0;entryDx=0;entryDy=0;exitX=1;exitY=1;exitDx=0;exitDy=0;" edge="1" parent="1" source="77vhPP4-ldF0HwKtBxAo-82" target="77vhPP4-ldF0HwKtBxAo-93">
          <mxGeometry width="50" height="50" relative="1" as="geometry">
            <mxPoint x="-630" y="508" as="sourcePoint" />
            <mxPoint x="-580" y="458" as="targetPoint" />
          </mxGeometry>
        </mxCell>
        <mxCell id="77vhPP4-ldF0HwKtBxAo-96" value="coverImage" style="ellipse;whiteSpace=wrap;html=1;align=center;" vertex="1" parent="1">
          <mxGeometry x="-130" y="730" width="100" height="40" as="geometry" />
        </mxCell>
        <mxCell id="77vhPP4-ldF0HwKtBxAo-98" value="" style="endArrow=none;html=1;rounded=0;exitX=1;exitY=1;exitDx=0;exitDy=0;entryX=0;entryY=0;entryDx=0;entryDy=0;" edge="1" parent="1" source="77vhPP4-ldF0HwKtBxAo-22" target="77vhPP4-ldF0HwKtBxAo-96">
          <mxGeometry width="50" height="50" relative="1" as="geometry">
            <mxPoint x="-270" y="700" as="sourcePoint" />
            <mxPoint x="-220" y="650" as="targetPoint" />
          </mxGeometry>
        </mxCell>
        <mxCell id="77vhPP4-ldF0HwKtBxAo-102" value="have" style="shape=rhombus;perimeter=rhombusPerimeter;whiteSpace=wrap;html=1;align=center;" vertex="1" parent="1">
          <mxGeometry x="-80" y="230" width="120" height="60" as="geometry" />
        </mxCell>
        <mxCell id="77vhPP4-ldF0HwKtBxAo-105" value="" style="endArrow=classic;html=1;rounded=0;entryX=1;entryY=0.5;entryDx=0;entryDy=0;" edge="1" parent="1" target="77vhPP4-ldF0HwKtBxAo-1">
          <mxGeometry width="50" height="50" relative="1" as="geometry">
            <mxPoint x="-80" y="260" as="sourcePoint" />
            <mxPoint x="-250" y="290" as="targetPoint" />
          </mxGeometry>
        </mxCell>
        <mxCell id="77vhPP4-ldF0HwKtBxAo-106" value="" style="endArrow=none;html=1;rounded=0;exitX=0;exitY=0.5;exitDx=0;exitDy=0;entryX=1;entryY=0.5;entryDx=0;entryDy=0;" edge="1" parent="1" source="77vhPP4-ldF0HwKtBxAo-70" target="77vhPP4-ldF0HwKtBxAo-102">
          <mxGeometry width="50" height="50" relative="1" as="geometry">
            <mxPoint x="-520" y="370" as="sourcePoint" />
            <mxPoint x="-470" y="320" as="targetPoint" />
          </mxGeometry>
        </mxCell>
        <mxCell id="77vhPP4-ldF0HwKtBxAo-107" value="for" style="shape=rhombus;perimeter=rhombusPerimeter;whiteSpace=wrap;html=1;align=center;" vertex="1" parent="1">
          <mxGeometry x="10" y="500" width="120" height="60" as="geometry" />
        </mxCell>
        <mxCell id="77vhPP4-ldF0HwKtBxAo-108" value="" style="endArrow=classic;html=1;rounded=0;exitX=1;exitY=1;exitDx=0;exitDy=0;entryX=1;entryY=0.5;entryDx=0;entryDy=0;" edge="1" parent="1" source="77vhPP4-ldF0HwKtBxAo-107" target="77vhPP4-ldF0HwKtBxAo-22">
          <mxGeometry width="50" height="50" relative="1" as="geometry">
            <mxPoint x="-470" y="440" as="sourcePoint" />
            <mxPoint x="-170" y="630" as="targetPoint" />
          </mxGeometry>
        </mxCell>
        <mxCell id="77vhPP4-ldF0HwKtBxAo-109" value="" style="endArrow=none;html=1;rounded=0;exitX=1;exitY=1;exitDx=0;exitDy=0;entryX=0.5;entryY=0;entryDx=0;entryDy=0;" edge="1" parent="1" source="77vhPP4-ldF0HwKtBxAo-70" target="77vhPP4-ldF0HwKtBxAo-107">
          <mxGeometry width="50" height="50" relative="1" as="geometry">
            <mxPoint x="-520" y="470" as="sourcePoint" />
            <mxPoint x="-470" y="420" as="targetPoint" />
          </mxGeometry>
        </mxCell>
        <mxCell id="77vhPP4-ldF0HwKtBxAo-125" value="CartItem" style="shape=table;startSize=40;container=1;collapsible=1;childLayout=tableLayout;fixedRows=1;rowLines=0;fontStyle=1;align=center;resizeLast=1;html=1;whiteSpace=wrap;" vertex="1" parent="1">
          <mxGeometry x="190" y="410" width="180" height="200" as="geometry" />
        </mxCell>
        <mxCell id="77vhPP4-ldF0HwKtBxAo-126" value="" style="shape=tableRow;horizontal=0;startSize=0;swimlaneHead=0;swimlaneBody=0;fillColor=none;collapsible=0;dropTarget=0;points=[[0,0.5],[1,0.5]];portConstraint=eastwest;top=0;left=0;right=0;bottom=0;html=1;" vertex="1" parent="77vhPP4-ldF0HwKtBxAo-125">
          <mxGeometry y="40" width="180" height="30" as="geometry" />
        </mxCell>
        <mxCell id="77vhPP4-ldF0HwKtBxAo-127" value="PK" style="shape=partialRectangle;connectable=0;fillColor=none;top=0;left=0;bottom=0;right=0;fontStyle=1;overflow=hidden;html=1;whiteSpace=wrap;" vertex="1" parent="77vhPP4-ldF0HwKtBxAo-126">
          <mxGeometry width="60" height="30" as="geometry">
            <mxRectangle width="60" height="30" as="alternateBounds" />
          </mxGeometry>
        </mxCell>
        <mxCell id="77vhPP4-ldF0HwKtBxAo-128" value="CartItemID" style="shape=partialRectangle;connectable=0;fillColor=none;top=0;left=0;bottom=0;right=0;align=left;spacingLeft=6;fontStyle=5;overflow=hidden;html=1;whiteSpace=wrap;" vertex="1" parent="77vhPP4-ldF0HwKtBxAo-126">
          <mxGeometry x="60" width="120" height="30" as="geometry">
            <mxRectangle width="120" height="30" as="alternateBounds" />
          </mxGeometry>
        </mxCell>
        <mxCell id="77vhPP4-ldF0HwKtBxAo-141" value="" style="shape=tableRow;horizontal=0;startSize=0;swimlaneHead=0;swimlaneBody=0;fillColor=none;collapsible=0;dropTarget=0;points=[[0,0.5],[1,0.5]];portConstraint=eastwest;top=0;left=0;right=0;bottom=0;html=1;" vertex="1" parent="77vhPP4-ldF0HwKtBxAo-125">
          <mxGeometry y="70" width="180" height="30" as="geometry" />
        </mxCell>
        <mxCell id="77vhPP4-ldF0HwKtBxAo-142" value="FK" style="shape=partialRectangle;connectable=0;fillColor=none;top=0;left=0;bottom=0;right=0;fontStyle=1;overflow=hidden;html=1;whiteSpace=wrap;" vertex="1" parent="77vhPP4-ldF0HwKtBxAo-141">
          <mxGeometry width="60" height="30" as="geometry">
            <mxRectangle width="60" height="30" as="alternateBounds" />
          </mxGeometry>
        </mxCell>
        <mxCell id="77vhPP4-ldF0HwKtBxAo-143" value="OrderID" style="shape=partialRectangle;connectable=0;fillColor=none;top=0;left=0;bottom=0;right=0;align=left;spacingLeft=6;fontStyle=5;overflow=hidden;html=1;whiteSpace=wrap;" vertex="1" parent="77vhPP4-ldF0HwKtBxAo-141">
          <mxGeometry x="60" width="120" height="30" as="geometry">
            <mxRectangle width="120" height="30" as="alternateBounds" />
          </mxGeometry>
        </mxCell>
        <mxCell id="77vhPP4-ldF0HwKtBxAo-144" value="" style="shape=tableRow;horizontal=0;startSize=0;swimlaneHead=0;swimlaneBody=0;fillColor=none;collapsible=0;dropTarget=0;points=[[0,0.5],[1,0.5]];portConstraint=eastwest;top=0;left=0;right=0;bottom=0;html=1;" vertex="1" parent="77vhPP4-ldF0HwKtBxAo-125">
          <mxGeometry y="100" width="180" height="20" as="geometry" />
        </mxCell>
        <mxCell id="77vhPP4-ldF0HwKtBxAo-145" value="FK" style="shape=partialRectangle;connectable=0;fillColor=none;top=0;left=0;bottom=0;right=0;fontStyle=1;overflow=hidden;html=1;whiteSpace=wrap;" vertex="1" parent="77vhPP4-ldF0HwKtBxAo-144">
          <mxGeometry width="60" height="20" as="geometry">
            <mxRectangle width="60" height="20" as="alternateBounds" />
          </mxGeometry>
        </mxCell>
        <mxCell id="77vhPP4-ldF0HwKtBxAo-146" value="BookID" style="shape=partialRectangle;connectable=0;fillColor=none;top=0;left=0;bottom=0;right=0;align=left;spacingLeft=6;fontStyle=5;overflow=hidden;html=1;whiteSpace=wrap;" vertex="1" parent="77vhPP4-ldF0HwKtBxAo-144">
          <mxGeometry x="60" width="120" height="20" as="geometry">
            <mxRectangle width="120" height="20" as="alternateBounds" />
          </mxGeometry>
        </mxCell>
        <mxCell id="77vhPP4-ldF0HwKtBxAo-129" value="" style="shape=tableRow;horizontal=0;startSize=0;swimlaneHead=0;swimlaneBody=0;fillColor=none;collapsible=0;dropTarget=0;points=[[0,0.5],[1,0.5]];portConstraint=eastwest;top=0;left=0;right=0;bottom=1;html=1;" vertex="1" parent="77vhPP4-ldF0HwKtBxAo-125">
          <mxGeometry y="120" width="180" height="20" as="geometry" />
        </mxCell>
        <mxCell id="77vhPP4-ldF0HwKtBxAo-130" value="FK" style="shape=partialRectangle;connectable=0;fillColor=none;top=0;left=0;bottom=0;right=0;fontStyle=1;overflow=hidden;html=1;whiteSpace=wrap;" vertex="1" parent="77vhPP4-ldF0HwKtBxAo-129">
          <mxGeometry width="60" height="20" as="geometry">
            <mxRectangle width="60" height="20" as="alternateBounds" />
          </mxGeometry>
        </mxCell>
        <mxCell id="77vhPP4-ldF0HwKtBxAo-131" value="UserID" style="shape=partialRectangle;connectable=0;fillColor=none;top=0;left=0;bottom=0;right=0;align=left;spacingLeft=6;fontStyle=5;overflow=hidden;html=1;whiteSpace=wrap;" vertex="1" parent="77vhPP4-ldF0HwKtBxAo-129">
          <mxGeometry x="60" width="120" height="20" as="geometry">
            <mxRectangle width="120" height="20" as="alternateBounds" />
          </mxGeometry>
        </mxCell>
        <mxCell id="77vhPP4-ldF0HwKtBxAo-132" value="" style="shape=tableRow;horizontal=0;startSize=0;swimlaneHead=0;swimlaneBody=0;fillColor=none;collapsible=0;dropTarget=0;points=[[0,0.5],[1,0.5]];portConstraint=eastwest;top=0;left=0;right=0;bottom=0;html=1;" vertex="1" parent="77vhPP4-ldF0HwKtBxAo-125">
          <mxGeometry y="140" width="180" height="30" as="geometry" />
        </mxCell>
        <mxCell id="77vhPP4-ldF0HwKtBxAo-133" value="" style="shape=partialRectangle;connectable=0;fillColor=none;top=0;left=0;bottom=0;right=0;editable=1;overflow=hidden;html=1;whiteSpace=wrap;" vertex="1" parent="77vhPP4-ldF0HwKtBxAo-132">
          <mxGeometry width="60" height="30" as="geometry">
            <mxRectangle width="60" height="30" as="alternateBounds" />
          </mxGeometry>
        </mxCell>
        <mxCell id="77vhPP4-ldF0HwKtBxAo-134" value="Quantity" style="shape=partialRectangle;connectable=0;fillColor=none;top=0;left=0;bottom=0;right=0;align=left;spacingLeft=6;overflow=hidden;html=1;whiteSpace=wrap;" vertex="1" parent="77vhPP4-ldF0HwKtBxAo-132">
          <mxGeometry x="60" width="120" height="30" as="geometry">
            <mxRectangle width="120" height="30" as="alternateBounds" />
          </mxGeometry>
        </mxCell>
        <mxCell id="77vhPP4-ldF0HwKtBxAo-135" value="" style="shape=tableRow;horizontal=0;startSize=0;swimlaneHead=0;swimlaneBody=0;fillColor=none;collapsible=0;dropTarget=0;points=[[0,0.5],[1,0.5]];portConstraint=eastwest;top=0;left=0;right=0;bottom=0;html=1;" vertex="1" parent="77vhPP4-ldF0HwKtBxAo-125">
          <mxGeometry y="170" width="180" height="30" as="geometry" />
        </mxCell>
        <mxCell id="77vhPP4-ldF0HwKtBxAo-136" value="" style="shape=partialRectangle;connectable=0;fillColor=none;top=0;left=0;bottom=0;right=0;editable=1;overflow=hidden;html=1;whiteSpace=wrap;" vertex="1" parent="77vhPP4-ldF0HwKtBxAo-135">
          <mxGeometry width="60" height="30" as="geometry">
            <mxRectangle width="60" height="30" as="alternateBounds" />
          </mxGeometry>
        </mxCell>
        <mxCell id="77vhPP4-ldF0HwKtBxAo-137" value="Row 4" style="shape=partialRectangle;connectable=0;fillColor=none;top=0;left=0;bottom=0;right=0;align=left;spacingLeft=6;overflow=hidden;html=1;whiteSpace=wrap;" vertex="1" parent="77vhPP4-ldF0HwKtBxAo-135">
          <mxGeometry x="60" width="120" height="30" as="geometry">
            <mxRectangle width="120" height="30" as="alternateBounds" />
          </mxGeometry>
        </mxCell>
        <mxCell id="77vhPP4-ldF0HwKtBxAo-147" value="have" style="shape=rhombus;perimeter=rhombusPerimeter;whiteSpace=wrap;html=1;align=center;" vertex="1" parent="1">
          <mxGeometry x="-450" y="330" width="120" height="60" as="geometry" />
        </mxCell>
        <mxCell id="77vhPP4-ldF0HwKtBxAo-148" value="" style="endArrow=none;html=1;rounded=0;exitX=0.75;exitY=0;exitDx=0;exitDy=0;entryX=0.5;entryY=1;entryDx=0;entryDy=0;" edge="1" parent="1" source="77vhPP4-ldF0HwKtBxAo-82" target="77vhPP4-ldF0HwKtBxAo-147">
          <mxGeometry width="50" height="50" relative="1" as="geometry">
            <mxPoint x="-130" y="430" as="sourcePoint" />
            <mxPoint x="-390" y="400" as="targetPoint" />
          </mxGeometry>
        </mxCell>
        <mxCell id="77vhPP4-ldF0HwKtBxAo-149" value="" style="endArrow=classic;html=1;rounded=0;exitX=1;exitY=0;exitDx=0;exitDy=0;entryX=0;entryY=1;entryDx=0;entryDy=0;" edge="1" parent="1" source="77vhPP4-ldF0HwKtBxAo-147" target="77vhPP4-ldF0HwKtBxAo-1">
          <mxGeometry width="50" height="50" relative="1" as="geometry">
            <mxPoint x="-130" y="430" as="sourcePoint" />
            <mxPoint x="-320" y="300" as="targetPoint" />
          </mxGeometry>
        </mxCell>
        <mxCell id="77vhPP4-ldF0HwKtBxAo-151" value="CartItem" style="shape=ext;margin=3;double=1;whiteSpace=wrap;html=1;align=center;" vertex="1" parent="1">
          <mxGeometry x="-290" y="470" width="100" height="40" as="geometry" />
        </mxCell>
        <mxCell id="77vhPP4-ldF0HwKtBxAo-152" value="have" style="shape=rhombus;perimeter=rhombusPerimeter;whiteSpace=wrap;html=1;align=center;" vertex="1" parent="1">
          <mxGeometry x="-300" y="560" width="120" height="60" as="geometry" />
        </mxCell>
        <mxCell id="77vhPP4-ldF0HwKtBxAo-153" value="have" style="shape=rhombus;perimeter=rhombusPerimeter;whiteSpace=wrap;html=1;align=center;" vertex="1" parent="1">
          <mxGeometry x="-300" y="350" width="120" height="60" as="geometry" />
        </mxCell>
        <mxCell id="77vhPP4-ldF0HwKtBxAo-154" value="" style="endArrow=classic;html=1;rounded=0;exitX=0.5;exitY=0;exitDx=0;exitDy=0;entryX=0.5;entryY=1;entryDx=0;entryDy=0;" edge="1" parent="1" source="77vhPP4-ldF0HwKtBxAo-153" target="77vhPP4-ldF0HwKtBxAo-1">
          <mxGeometry width="50" height="50" relative="1" as="geometry">
            <mxPoint x="-130" y="490" as="sourcePoint" />
            <mxPoint x="-80" y="440" as="targetPoint" />
          </mxGeometry>
        </mxCell>
        <mxCell id="77vhPP4-ldF0HwKtBxAo-155" value="" style="endArrow=classic;html=1;rounded=0;exitX=0.5;exitY=1;exitDx=0;exitDy=0;entryX=0.5;entryY=0;entryDx=0;entryDy=0;" edge="1" parent="1" source="77vhPP4-ldF0HwKtBxAo-152" target="77vhPP4-ldF0HwKtBxAo-22">
          <mxGeometry width="50" height="50" relative="1" as="geometry">
            <mxPoint x="-130" y="490" as="sourcePoint" />
            <mxPoint x="-80" y="440" as="targetPoint" />
          </mxGeometry>
        </mxCell>
        <mxCell id="77vhPP4-ldF0HwKtBxAo-156" value="" style="endArrow=none;html=1;rounded=0;exitX=0.5;exitY=1;exitDx=0;exitDy=0;entryX=0.5;entryY=0;entryDx=0;entryDy=0;" edge="1" parent="1" source="77vhPP4-ldF0HwKtBxAo-151" target="77vhPP4-ldF0HwKtBxAo-152">
          <mxGeometry width="50" height="50" relative="1" as="geometry">
            <mxPoint x="-130" y="490" as="sourcePoint" />
            <mxPoint x="-80" y="440" as="targetPoint" />
          </mxGeometry>
        </mxCell>
        <mxCell id="77vhPP4-ldF0HwKtBxAo-157" value="" style="endArrow=none;html=1;rounded=0;exitX=0.5;exitY=0;exitDx=0;exitDy=0;entryX=0.5;entryY=1;entryDx=0;entryDy=0;" edge="1" parent="1" source="77vhPP4-ldF0HwKtBxAo-151" target="77vhPP4-ldF0HwKtBxAo-153">
          <mxGeometry width="50" height="50" relative="1" as="geometry">
            <mxPoint x="-130" y="490" as="sourcePoint" />
            <mxPoint x="-80" y="440" as="targetPoint" />
          </mxGeometry>
        </mxCell>
        <mxCell id="77vhPP4-ldF0HwKtBxAo-158" value="have" style="shape=rhombus;perimeter=rhombusPerimeter;whiteSpace=wrap;html=1;align=center;" vertex="1" parent="1">
          <mxGeometry x="-480" y="458" width="120" height="60" as="geometry" />
        </mxCell>
        <mxCell id="77vhPP4-ldF0HwKtBxAo-160" value="" style="endArrow=none;html=1;rounded=0;exitX=1;exitY=0.5;exitDx=0;exitDy=0;entryX=0;entryY=0.5;entryDx=0;entryDy=0;" edge="1" parent="1" source="77vhPP4-ldF0HwKtBxAo-82" target="77vhPP4-ldF0HwKtBxAo-158">
          <mxGeometry width="50" height="50" relative="1" as="geometry">
            <mxPoint x="-130" y="490" as="sourcePoint" />
            <mxPoint x="-80" y="440" as="targetPoint" />
          </mxGeometry>
        </mxCell>
        <mxCell id="77vhPP4-ldF0HwKtBxAo-163" value="" style="endArrow=none;html=1;rounded=0;exitX=1;exitY=0.5;exitDx=0;exitDy=0;entryX=0;entryY=0.5;entryDx=0;entryDy=0;" edge="1" parent="1" source="77vhPP4-ldF0HwKtBxAo-158" target="77vhPP4-ldF0HwKtBxAo-151">
          <mxGeometry relative="1" as="geometry">
            <mxPoint x="-150" y="600" as="sourcePoint" />
            <mxPoint x="10" y="600" as="targetPoint" />
          </mxGeometry>
        </mxCell>
        <mxCell id="77vhPP4-ldF0HwKtBxAo-164" value="N" style="resizable=0;html=1;whiteSpace=wrap;align=right;verticalAlign=bottom;" connectable="0" vertex="1" parent="77vhPP4-ldF0HwKtBxAo-163">
          <mxGeometry x="1" relative="1" as="geometry" />
        </mxCell>
        <mxCell id="77vhPP4-ldF0HwKtBxAo-165" value="Comment" style="shape=table;startSize=40;container=1;collapsible=1;childLayout=tableLayout;fixedRows=1;rowLines=0;fontStyle=1;align=center;resizeLast=1;html=1;whiteSpace=wrap;" vertex="1" parent="1">
          <mxGeometry x="425" y="550" width="180" height="170" as="geometry" />
        </mxCell>
        <mxCell id="77vhPP4-ldF0HwKtBxAo-166" value="" style="shape=tableRow;horizontal=0;startSize=0;swimlaneHead=0;swimlaneBody=0;fillColor=none;collapsible=0;dropTarget=0;points=[[0,0.5],[1,0.5]];portConstraint=eastwest;top=0;left=0;right=0;bottom=0;html=1;" vertex="1" parent="77vhPP4-ldF0HwKtBxAo-165">
          <mxGeometry y="40" width="180" height="30" as="geometry" />
        </mxCell>
        <mxCell id="77vhPP4-ldF0HwKtBxAo-167" value="PK" style="shape=partialRectangle;connectable=0;fillColor=none;top=0;left=0;bottom=0;right=0;fontStyle=1;overflow=hidden;html=1;whiteSpace=wrap;" vertex="1" parent="77vhPP4-ldF0HwKtBxAo-166">
          <mxGeometry width="60" height="30" as="geometry">
            <mxRectangle width="60" height="30" as="alternateBounds" />
          </mxGeometry>
        </mxCell>
        <mxCell id="77vhPP4-ldF0HwKtBxAo-168" value="CommentID" style="shape=partialRectangle;connectable=0;fillColor=none;top=0;left=0;bottom=0;right=0;align=left;spacingLeft=6;fontStyle=5;overflow=hidden;html=1;whiteSpace=wrap;" vertex="1" parent="77vhPP4-ldF0HwKtBxAo-166">
          <mxGeometry x="60" width="120" height="30" as="geometry">
            <mxRectangle width="120" height="30" as="alternateBounds" />
          </mxGeometry>
        </mxCell>
        <mxCell id="77vhPP4-ldF0HwKtBxAo-172" value="" style="shape=tableRow;horizontal=0;startSize=0;swimlaneHead=0;swimlaneBody=0;fillColor=none;collapsible=0;dropTarget=0;points=[[0,0.5],[1,0.5]];portConstraint=eastwest;top=0;left=0;right=0;bottom=0;html=1;" vertex="1" parent="77vhPP4-ldF0HwKtBxAo-165">
          <mxGeometry y="70" width="180" height="20" as="geometry" />
        </mxCell>
        <mxCell id="77vhPP4-ldF0HwKtBxAo-173" value="FK" style="shape=partialRectangle;connectable=0;fillColor=none;top=0;left=0;bottom=0;right=0;fontStyle=1;overflow=hidden;html=1;whiteSpace=wrap;" vertex="1" parent="77vhPP4-ldF0HwKtBxAo-172">
          <mxGeometry width="60" height="20" as="geometry">
            <mxRectangle width="60" height="20" as="alternateBounds" />
          </mxGeometry>
        </mxCell>
        <mxCell id="77vhPP4-ldF0HwKtBxAo-174" value="BookID" style="shape=partialRectangle;connectable=0;fillColor=none;top=0;left=0;bottom=0;right=0;align=left;spacingLeft=6;fontStyle=5;overflow=hidden;html=1;whiteSpace=wrap;" vertex="1" parent="77vhPP4-ldF0HwKtBxAo-172">
          <mxGeometry x="60" width="120" height="20" as="geometry">
            <mxRectangle width="120" height="20" as="alternateBounds" />
          </mxGeometry>
        </mxCell>
        <mxCell id="77vhPP4-ldF0HwKtBxAo-175" value="" style="shape=tableRow;horizontal=0;startSize=0;swimlaneHead=0;swimlaneBody=0;fillColor=none;collapsible=0;dropTarget=0;points=[[0,0.5],[1,0.5]];portConstraint=eastwest;top=0;left=0;right=0;bottom=1;html=1;" vertex="1" parent="77vhPP4-ldF0HwKtBxAo-165">
          <mxGeometry y="90" width="180" height="20" as="geometry" />
        </mxCell>
        <mxCell id="77vhPP4-ldF0HwKtBxAo-176" value="FK" style="shape=partialRectangle;connectable=0;fillColor=none;top=0;left=0;bottom=0;right=0;fontStyle=1;overflow=hidden;html=1;whiteSpace=wrap;" vertex="1" parent="77vhPP4-ldF0HwKtBxAo-175">
          <mxGeometry width="60" height="20" as="geometry">
            <mxRectangle width="60" height="20" as="alternateBounds" />
          </mxGeometry>
        </mxCell>
        <mxCell id="77vhPP4-ldF0HwKtBxAo-177" value="UserID" style="shape=partialRectangle;connectable=0;fillColor=none;top=0;left=0;bottom=0;right=0;align=left;spacingLeft=6;fontStyle=5;overflow=hidden;html=1;whiteSpace=wrap;" vertex="1" parent="77vhPP4-ldF0HwKtBxAo-175">
          <mxGeometry x="60" width="120" height="20" as="geometry">
            <mxRectangle width="120" height="20" as="alternateBounds" />
          </mxGeometry>
        </mxCell>
        <mxCell id="77vhPP4-ldF0HwKtBxAo-178" value="" style="shape=tableRow;horizontal=0;startSize=0;swimlaneHead=0;swimlaneBody=0;fillColor=none;collapsible=0;dropTarget=0;points=[[0,0.5],[1,0.5]];portConstraint=eastwest;top=0;left=0;right=0;bottom=0;html=1;" vertex="1" parent="77vhPP4-ldF0HwKtBxAo-165">
          <mxGeometry y="110" width="180" height="30" as="geometry" />
        </mxCell>
        <mxCell id="77vhPP4-ldF0HwKtBxAo-179" value="" style="shape=partialRectangle;connectable=0;fillColor=none;top=0;left=0;bottom=0;right=0;editable=1;overflow=hidden;html=1;whiteSpace=wrap;" vertex="1" parent="77vhPP4-ldF0HwKtBxAo-178">
          <mxGeometry width="60" height="30" as="geometry">
            <mxRectangle width="60" height="30" as="alternateBounds" />
          </mxGeometry>
        </mxCell>
        <mxCell id="77vhPP4-ldF0HwKtBxAo-180" value="comment" style="shape=partialRectangle;connectable=0;fillColor=none;top=0;left=0;bottom=0;right=0;align=left;spacingLeft=6;overflow=hidden;html=1;whiteSpace=wrap;" vertex="1" parent="77vhPP4-ldF0HwKtBxAo-178">
          <mxGeometry x="60" width="120" height="30" as="geometry">
            <mxRectangle width="120" height="30" as="alternateBounds" />
          </mxGeometry>
        </mxCell>
        <mxCell id="77vhPP4-ldF0HwKtBxAo-181" value="" style="shape=tableRow;horizontal=0;startSize=0;swimlaneHead=0;swimlaneBody=0;fillColor=none;collapsible=0;dropTarget=0;points=[[0,0.5],[1,0.5]];portConstraint=eastwest;top=0;left=0;right=0;bottom=0;html=1;" vertex="1" parent="77vhPP4-ldF0HwKtBxAo-165">
          <mxGeometry y="140" width="180" height="30" as="geometry" />
        </mxCell>
        <mxCell id="77vhPP4-ldF0HwKtBxAo-182" value="" style="shape=partialRectangle;connectable=0;fillColor=none;top=0;left=0;bottom=0;right=0;editable=1;overflow=hidden;html=1;whiteSpace=wrap;" vertex="1" parent="77vhPP4-ldF0HwKtBxAo-181">
          <mxGeometry width="60" height="30" as="geometry">
            <mxRectangle width="60" height="30" as="alternateBounds" />
          </mxGeometry>
        </mxCell>
        <mxCell id="77vhPP4-ldF0HwKtBxAo-183" value="rating" style="shape=partialRectangle;connectable=0;fillColor=none;top=0;left=0;bottom=0;right=0;align=left;spacingLeft=6;overflow=hidden;html=1;whiteSpace=wrap;" vertex="1" parent="77vhPP4-ldF0HwKtBxAo-181">
          <mxGeometry x="60" width="120" height="30" as="geometry">
            <mxRectangle width="120" height="30" as="alternateBounds" />
          </mxGeometry>
        </mxCell>
        <mxCell id="77vhPP4-ldF0HwKtBxAo-184" value="User" style="shape=table;startSize=40;container=1;collapsible=1;childLayout=tableLayout;fixedRows=1;rowLines=0;fontStyle=1;align=center;resizeLast=1;html=1;whiteSpace=wrap;" vertex="1" parent="1">
          <mxGeometry x="430" y="360" width="180" height="150" as="geometry" />
        </mxCell>
        <mxCell id="77vhPP4-ldF0HwKtBxAo-194" value="" style="shape=tableRow;horizontal=0;startSize=0;swimlaneHead=0;swimlaneBody=0;fillColor=none;collapsible=0;dropTarget=0;points=[[0,0.5],[1,0.5]];portConstraint=eastwest;top=0;left=0;right=0;bottom=1;html=1;" vertex="1" parent="77vhPP4-ldF0HwKtBxAo-184">
          <mxGeometry y="40" width="180" height="20" as="geometry" />
        </mxCell>
        <mxCell id="77vhPP4-ldF0HwKtBxAo-195" value="PK" style="shape=partialRectangle;connectable=0;fillColor=none;top=0;left=0;bottom=0;right=0;fontStyle=1;overflow=hidden;html=1;whiteSpace=wrap;" vertex="1" parent="77vhPP4-ldF0HwKtBxAo-194">
          <mxGeometry width="60" height="20" as="geometry">
            <mxRectangle width="60" height="20" as="alternateBounds" />
          </mxGeometry>
        </mxCell>
        <mxCell id="77vhPP4-ldF0HwKtBxAo-196" value="UserID" style="shape=partialRectangle;connectable=0;fillColor=none;top=0;left=0;bottom=0;right=0;align=left;spacingLeft=6;fontStyle=5;overflow=hidden;html=1;whiteSpace=wrap;" vertex="1" parent="77vhPP4-ldF0HwKtBxAo-194">
          <mxGeometry x="60" width="120" height="20" as="geometry">
            <mxRectangle width="120" height="20" as="alternateBounds" />
          </mxGeometry>
        </mxCell>
        <mxCell id="77vhPP4-ldF0HwKtBxAo-197" value="" style="shape=tableRow;horizontal=0;startSize=0;swimlaneHead=0;swimlaneBody=0;fillColor=none;collapsible=0;dropTarget=0;points=[[0,0.5],[1,0.5]];portConstraint=eastwest;top=0;left=0;right=0;bottom=0;html=1;" vertex="1" parent="77vhPP4-ldF0HwKtBxAo-184">
          <mxGeometry y="60" width="180" height="30" as="geometry" />
        </mxCell>
        <mxCell id="77vhPP4-ldF0HwKtBxAo-198" value="" style="shape=partialRectangle;connectable=0;fillColor=none;top=0;left=0;bottom=0;right=0;editable=1;overflow=hidden;html=1;whiteSpace=wrap;" vertex="1" parent="77vhPP4-ldF0HwKtBxAo-197">
          <mxGeometry width="60" height="30" as="geometry">
            <mxRectangle width="60" height="30" as="alternateBounds" />
          </mxGeometry>
        </mxCell>
        <mxCell id="77vhPP4-ldF0HwKtBxAo-199" value="username" style="shape=partialRectangle;connectable=0;fillColor=none;top=0;left=0;bottom=0;right=0;align=left;spacingLeft=6;overflow=hidden;html=1;whiteSpace=wrap;" vertex="1" parent="77vhPP4-ldF0HwKtBxAo-197">
          <mxGeometry x="60" width="120" height="30" as="geometry">
            <mxRectangle width="120" height="30" as="alternateBounds" />
          </mxGeometry>
        </mxCell>
        <mxCell id="77vhPP4-ldF0HwKtBxAo-200" value="" style="shape=tableRow;horizontal=0;startSize=0;swimlaneHead=0;swimlaneBody=0;fillColor=none;collapsible=0;dropTarget=0;points=[[0,0.5],[1,0.5]];portConstraint=eastwest;top=0;left=0;right=0;bottom=0;html=1;" vertex="1" parent="77vhPP4-ldF0HwKtBxAo-184">
          <mxGeometry y="90" width="180" height="30" as="geometry" />
        </mxCell>
        <mxCell id="77vhPP4-ldF0HwKtBxAo-201" value="" style="shape=partialRectangle;connectable=0;fillColor=none;top=0;left=0;bottom=0;right=0;editable=1;overflow=hidden;html=1;whiteSpace=wrap;" vertex="1" parent="77vhPP4-ldF0HwKtBxAo-200">
          <mxGeometry width="60" height="30" as="geometry">
            <mxRectangle width="60" height="30" as="alternateBounds" />
          </mxGeometry>
        </mxCell>
        <mxCell id="77vhPP4-ldF0HwKtBxAo-202" value="password" style="shape=partialRectangle;connectable=0;fillColor=none;top=0;left=0;bottom=0;right=0;align=left;spacingLeft=6;overflow=hidden;html=1;whiteSpace=wrap;" vertex="1" parent="77vhPP4-ldF0HwKtBxAo-200">
          <mxGeometry x="60" width="120" height="30" as="geometry">
            <mxRectangle width="120" height="30" as="alternateBounds" />
          </mxGeometry>
        </mxCell>
        <mxCell id="77vhPP4-ldF0HwKtBxAo-203" value="" style="shape=tableRow;horizontal=0;startSize=0;swimlaneHead=0;swimlaneBody=0;fillColor=none;collapsible=0;dropTarget=0;points=[[0,0.5],[1,0.5]];portConstraint=eastwest;top=0;left=0;right=0;bottom=0;html=1;" vertex="1" parent="77vhPP4-ldF0HwKtBxAo-184">
          <mxGeometry y="120" width="180" height="30" as="geometry" />
        </mxCell>
        <mxCell id="77vhPP4-ldF0HwKtBxAo-204" value="" style="shape=partialRectangle;connectable=0;fillColor=none;top=0;left=0;bottom=0;right=0;editable=1;overflow=hidden;html=1;whiteSpace=wrap;" vertex="1" parent="77vhPP4-ldF0HwKtBxAo-203">
          <mxGeometry width="60" height="30" as="geometry">
            <mxRectangle width="60" height="30" as="alternateBounds" />
          </mxGeometry>
        </mxCell>
        <mxCell id="77vhPP4-ldF0HwKtBxAo-205" value="role" style="shape=partialRectangle;connectable=0;fillColor=none;top=0;left=0;bottom=0;right=0;align=left;spacingLeft=6;overflow=hidden;html=1;whiteSpace=wrap;" vertex="1" parent="77vhPP4-ldF0HwKtBxAo-203">
          <mxGeometry x="60" width="120" height="30" as="geometry">
            <mxRectangle width="120" height="30" as="alternateBounds" />
          </mxGeometry>
        </mxCell>
        <mxCell id="77vhPP4-ldF0HwKtBxAo-209" value="Order" style="shape=table;startSize=40;container=1;collapsible=1;childLayout=tableLayout;fixedRows=1;rowLines=0;fontStyle=1;align=center;resizeLast=1;html=1;whiteSpace=wrap;" vertex="1" parent="1">
          <mxGeometry x="230" y="140" width="180" height="210" as="geometry" />
        </mxCell>
        <mxCell id="77vhPP4-ldF0HwKtBxAo-210" value="" style="shape=tableRow;horizontal=0;startSize=0;swimlaneHead=0;swimlaneBody=0;fillColor=none;collapsible=0;dropTarget=0;points=[[0,0.5],[1,0.5]];portConstraint=eastwest;top=0;left=0;right=0;bottom=0;html=1;" vertex="1" parent="77vhPP4-ldF0HwKtBxAo-209">
          <mxGeometry y="40" width="180" height="30" as="geometry" />
        </mxCell>
        <mxCell id="77vhPP4-ldF0HwKtBxAo-211" value="PK" style="shape=partialRectangle;connectable=0;fillColor=none;top=0;left=0;bottom=0;right=0;fontStyle=1;overflow=hidden;html=1;whiteSpace=wrap;" vertex="1" parent="77vhPP4-ldF0HwKtBxAo-210">
          <mxGeometry width="60" height="30" as="geometry">
            <mxRectangle width="60" height="30" as="alternateBounds" />
          </mxGeometry>
        </mxCell>
        <mxCell id="77vhPP4-ldF0HwKtBxAo-212" value="OrderID" style="shape=partialRectangle;connectable=0;fillColor=none;top=0;left=0;bottom=0;right=0;align=left;spacingLeft=6;fontStyle=5;overflow=hidden;html=1;whiteSpace=wrap;" vertex="1" parent="77vhPP4-ldF0HwKtBxAo-210">
          <mxGeometry x="60" width="120" height="30" as="geometry">
            <mxRectangle width="120" height="30" as="alternateBounds" />
          </mxGeometry>
        </mxCell>
        <mxCell id="77vhPP4-ldF0HwKtBxAo-216" value="" style="shape=tableRow;horizontal=0;startSize=0;swimlaneHead=0;swimlaneBody=0;fillColor=none;collapsible=0;dropTarget=0;points=[[0,0.5],[1,0.5]];portConstraint=eastwest;top=0;left=0;right=0;bottom=1;html=1;" vertex="1" parent="77vhPP4-ldF0HwKtBxAo-209">
          <mxGeometry y="70" width="180" height="20" as="geometry" />
        </mxCell>
        <mxCell id="77vhPP4-ldF0HwKtBxAo-217" value="FK" style="shape=partialRectangle;connectable=0;fillColor=none;top=0;left=0;bottom=0;right=0;fontStyle=1;overflow=hidden;html=1;whiteSpace=wrap;" vertex="1" parent="77vhPP4-ldF0HwKtBxAo-216">
          <mxGeometry width="60" height="20" as="geometry">
            <mxRectangle width="60" height="20" as="alternateBounds" />
          </mxGeometry>
        </mxCell>
        <mxCell id="77vhPP4-ldF0HwKtBxAo-218" value="UserID" style="shape=partialRectangle;connectable=0;fillColor=none;top=0;left=0;bottom=0;right=0;align=left;spacingLeft=6;fontStyle=5;overflow=hidden;html=1;whiteSpace=wrap;" vertex="1" parent="77vhPP4-ldF0HwKtBxAo-216">
          <mxGeometry x="60" width="120" height="20" as="geometry">
            <mxRectangle width="120" height="20" as="alternateBounds" />
          </mxGeometry>
        </mxCell>
        <mxCell id="77vhPP4-ldF0HwKtBxAo-219" value="" style="shape=tableRow;horizontal=0;startSize=0;swimlaneHead=0;swimlaneBody=0;fillColor=none;collapsible=0;dropTarget=0;points=[[0,0.5],[1,0.5]];portConstraint=eastwest;top=0;left=0;right=0;bottom=0;html=1;" vertex="1" parent="77vhPP4-ldF0HwKtBxAo-209">
          <mxGeometry y="90" width="180" height="30" as="geometry" />
        </mxCell>
        <mxCell id="77vhPP4-ldF0HwKtBxAo-220" value="" style="shape=partialRectangle;connectable=0;fillColor=none;top=0;left=0;bottom=0;right=0;editable=1;overflow=hidden;html=1;whiteSpace=wrap;" vertex="1" parent="77vhPP4-ldF0HwKtBxAo-219">
          <mxGeometry width="60" height="30" as="geometry">
            <mxRectangle width="60" height="30" as="alternateBounds" />
          </mxGeometry>
        </mxCell>
        <mxCell id="77vhPP4-ldF0HwKtBxAo-221" value="address" style="shape=partialRectangle;connectable=0;fillColor=none;top=0;left=0;bottom=0;right=0;align=left;spacingLeft=6;overflow=hidden;html=1;whiteSpace=wrap;" vertex="1" parent="77vhPP4-ldF0HwKtBxAo-219">
          <mxGeometry x="60" width="120" height="30" as="geometry">
            <mxRectangle width="120" height="30" as="alternateBounds" />
          </mxGeometry>
        </mxCell>
        <mxCell id="77vhPP4-ldF0HwKtBxAo-222" value="" style="shape=tableRow;horizontal=0;startSize=0;swimlaneHead=0;swimlaneBody=0;fillColor=none;collapsible=0;dropTarget=0;points=[[0,0.5],[1,0.5]];portConstraint=eastwest;top=0;left=0;right=0;bottom=0;html=1;" vertex="1" parent="77vhPP4-ldF0HwKtBxAo-209">
          <mxGeometry y="120" width="180" height="30" as="geometry" />
        </mxCell>
        <mxCell id="77vhPP4-ldF0HwKtBxAo-223" value="" style="shape=partialRectangle;connectable=0;fillColor=none;top=0;left=0;bottom=0;right=0;editable=1;overflow=hidden;html=1;whiteSpace=wrap;" vertex="1" parent="77vhPP4-ldF0HwKtBxAo-222">
          <mxGeometry width="60" height="30" as="geometry">
            <mxRectangle width="60" height="30" as="alternateBounds" />
          </mxGeometry>
        </mxCell>
        <mxCell id="77vhPP4-ldF0HwKtBxAo-224" value="totalPrice" style="shape=partialRectangle;connectable=0;fillColor=none;top=0;left=0;bottom=0;right=0;align=left;spacingLeft=6;overflow=hidden;html=1;whiteSpace=wrap;" vertex="1" parent="77vhPP4-ldF0HwKtBxAo-222">
          <mxGeometry x="60" width="120" height="30" as="geometry">
            <mxRectangle width="120" height="30" as="alternateBounds" />
          </mxGeometry>
        </mxCell>
        <mxCell id="77vhPP4-ldF0HwKtBxAo-225" value="" style="shape=tableRow;horizontal=0;startSize=0;swimlaneHead=0;swimlaneBody=0;fillColor=none;collapsible=0;dropTarget=0;points=[[0,0.5],[1,0.5]];portConstraint=eastwest;top=0;left=0;right=0;bottom=0;html=1;" vertex="1" parent="77vhPP4-ldF0HwKtBxAo-209">
          <mxGeometry y="150" width="180" height="30" as="geometry" />
        </mxCell>
        <mxCell id="77vhPP4-ldF0HwKtBxAo-226" value="" style="shape=partialRectangle;connectable=0;fillColor=none;top=0;left=0;bottom=0;right=0;editable=1;overflow=hidden;html=1;whiteSpace=wrap;" vertex="1" parent="77vhPP4-ldF0HwKtBxAo-225">
          <mxGeometry width="60" height="30" as="geometry">
            <mxRectangle width="60" height="30" as="alternateBounds" />
          </mxGeometry>
        </mxCell>
        <mxCell id="77vhPP4-ldF0HwKtBxAo-227" value="status" style="shape=partialRectangle;connectable=0;fillColor=none;top=0;left=0;bottom=0;right=0;align=left;spacingLeft=6;overflow=hidden;html=1;whiteSpace=wrap;" vertex="1" parent="77vhPP4-ldF0HwKtBxAo-225">
          <mxGeometry x="60" width="120" height="30" as="geometry">
            <mxRectangle width="120" height="30" as="alternateBounds" />
          </mxGeometry>
        </mxCell>
        <mxCell id="77vhPP4-ldF0HwKtBxAo-228" value="" style="shape=tableRow;horizontal=0;startSize=0;swimlaneHead=0;swimlaneBody=0;fillColor=none;collapsible=0;dropTarget=0;points=[[0,0.5],[1,0.5]];portConstraint=eastwest;top=0;left=0;right=0;bottom=0;html=1;" vertex="1" parent="77vhPP4-ldF0HwKtBxAo-209">
          <mxGeometry y="180" width="180" height="30" as="geometry" />
        </mxCell>
        <mxCell id="77vhPP4-ldF0HwKtBxAo-229" value="" style="shape=partialRectangle;connectable=0;fillColor=none;top=0;left=0;bottom=0;right=0;editable=1;overflow=hidden;html=1;whiteSpace=wrap;" vertex="1" parent="77vhPP4-ldF0HwKtBxAo-228">
          <mxGeometry width="60" height="30" as="geometry">
            <mxRectangle width="60" height="30" as="alternateBounds" />
          </mxGeometry>
        </mxCell>
        <mxCell id="77vhPP4-ldF0HwKtBxAo-230" value="email" style="shape=partialRectangle;connectable=0;fillColor=none;top=0;left=0;bottom=0;right=0;align=left;spacingLeft=6;overflow=hidden;html=1;whiteSpace=wrap;" vertex="1" parent="77vhPP4-ldF0HwKtBxAo-228">
          <mxGeometry x="60" width="120" height="30" as="geometry">
            <mxRectangle width="120" height="30" as="alternateBounds" />
          </mxGeometry>
        </mxCell>
        <mxCell id="77vhPP4-ldF0HwKtBxAo-232" value="Book" style="shape=table;startSize=40;container=1;collapsible=1;childLayout=tableLayout;fixedRows=1;rowLines=0;fontStyle=1;align=center;resizeLast=1;html=1;whiteSpace=wrap;" vertex="1" parent="1">
          <mxGeometry x="160" y="650" width="180" height="240" as="geometry" />
        </mxCell>
        <mxCell id="77vhPP4-ldF0HwKtBxAo-239" value="" style="shape=tableRow;horizontal=0;startSize=0;swimlaneHead=0;swimlaneBody=0;fillColor=none;collapsible=0;dropTarget=0;points=[[0,0.5],[1,0.5]];portConstraint=eastwest;top=0;left=0;right=0;bottom=1;html=1;" vertex="1" parent="77vhPP4-ldF0HwKtBxAo-232">
          <mxGeometry y="40" width="180" height="20" as="geometry" />
        </mxCell>
        <mxCell id="77vhPP4-ldF0HwKtBxAo-240" value="PK" style="shape=partialRectangle;connectable=0;fillColor=none;top=0;left=0;bottom=0;right=0;fontStyle=1;overflow=hidden;html=1;whiteSpace=wrap;" vertex="1" parent="77vhPP4-ldF0HwKtBxAo-239">
          <mxGeometry width="60" height="20" as="geometry">
            <mxRectangle width="60" height="20" as="alternateBounds" />
          </mxGeometry>
        </mxCell>
        <mxCell id="77vhPP4-ldF0HwKtBxAo-241" value="BookID" style="shape=partialRectangle;connectable=0;fillColor=none;top=0;left=0;bottom=0;right=0;align=left;spacingLeft=6;fontStyle=5;overflow=hidden;html=1;whiteSpace=wrap;" vertex="1" parent="77vhPP4-ldF0HwKtBxAo-239">
          <mxGeometry x="60" width="120" height="20" as="geometry">
            <mxRectangle width="120" height="20" as="alternateBounds" />
          </mxGeometry>
        </mxCell>
        <mxCell id="77vhPP4-ldF0HwKtBxAo-242" value="" style="shape=tableRow;horizontal=0;startSize=0;swimlaneHead=0;swimlaneBody=0;fillColor=none;collapsible=0;dropTarget=0;points=[[0,0.5],[1,0.5]];portConstraint=eastwest;top=0;left=0;right=0;bottom=0;html=1;" vertex="1" parent="77vhPP4-ldF0HwKtBxAo-232">
          <mxGeometry y="60" width="180" height="30" as="geometry" />
        </mxCell>
        <mxCell id="77vhPP4-ldF0HwKtBxAo-243" value="" style="shape=partialRectangle;connectable=0;fillColor=none;top=0;left=0;bottom=0;right=0;editable=1;overflow=hidden;html=1;whiteSpace=wrap;" vertex="1" parent="77vhPP4-ldF0HwKtBxAo-242">
          <mxGeometry width="60" height="30" as="geometry">
            <mxRectangle width="60" height="30" as="alternateBounds" />
          </mxGeometry>
        </mxCell>
        <mxCell id="77vhPP4-ldF0HwKtBxAo-244" value="title" style="shape=partialRectangle;connectable=0;fillColor=none;top=0;left=0;bottom=0;right=0;align=left;spacingLeft=6;overflow=hidden;html=1;whiteSpace=wrap;" vertex="1" parent="77vhPP4-ldF0HwKtBxAo-242">
          <mxGeometry x="60" width="120" height="30" as="geometry">
            <mxRectangle width="120" height="30" as="alternateBounds" />
          </mxGeometry>
        </mxCell>
        <mxCell id="77vhPP4-ldF0HwKtBxAo-254" value="" style="shape=tableRow;horizontal=0;startSize=0;swimlaneHead=0;swimlaneBody=0;fillColor=none;collapsible=0;dropTarget=0;points=[[0,0.5],[1,0.5]];portConstraint=eastwest;top=0;left=0;right=0;bottom=0;html=1;" vertex="1" parent="77vhPP4-ldF0HwKtBxAo-232">
          <mxGeometry y="90" width="180" height="30" as="geometry" />
        </mxCell>
        <mxCell id="77vhPP4-ldF0HwKtBxAo-255" value="" style="shape=partialRectangle;connectable=0;fillColor=none;top=0;left=0;bottom=0;right=0;editable=1;overflow=hidden;html=1;whiteSpace=wrap;" vertex="1" parent="77vhPP4-ldF0HwKtBxAo-254">
          <mxGeometry width="60" height="30" as="geometry">
            <mxRectangle width="60" height="30" as="alternateBounds" />
          </mxGeometry>
        </mxCell>
        <mxCell id="77vhPP4-ldF0HwKtBxAo-256" value="author" style="shape=partialRectangle;connectable=0;fillColor=none;top=0;left=0;bottom=0;right=0;align=left;spacingLeft=6;overflow=hidden;html=1;whiteSpace=wrap;" vertex="1" parent="77vhPP4-ldF0HwKtBxAo-254">
          <mxGeometry x="60" width="120" height="30" as="geometry">
            <mxRectangle width="120" height="30" as="alternateBounds" />
          </mxGeometry>
        </mxCell>
        <mxCell id="77vhPP4-ldF0HwKtBxAo-245" value="" style="shape=tableRow;horizontal=0;startSize=0;swimlaneHead=0;swimlaneBody=0;fillColor=none;collapsible=0;dropTarget=0;points=[[0,0.5],[1,0.5]];portConstraint=eastwest;top=0;left=0;right=0;bottom=0;html=1;" vertex="1" parent="77vhPP4-ldF0HwKtBxAo-232">
          <mxGeometry y="120" width="180" height="30" as="geometry" />
        </mxCell>
        <mxCell id="77vhPP4-ldF0HwKtBxAo-246" value="" style="shape=partialRectangle;connectable=0;fillColor=none;top=0;left=0;bottom=0;right=0;editable=1;overflow=hidden;html=1;whiteSpace=wrap;" vertex="1" parent="77vhPP4-ldF0HwKtBxAo-245">
          <mxGeometry width="60" height="30" as="geometry">
            <mxRectangle width="60" height="30" as="alternateBounds" />
          </mxGeometry>
        </mxCell>
        <mxCell id="77vhPP4-ldF0HwKtBxAo-247" value="coverImage" style="shape=partialRectangle;connectable=0;fillColor=none;top=0;left=0;bottom=0;right=0;align=left;spacingLeft=6;overflow=hidden;html=1;whiteSpace=wrap;" vertex="1" parent="77vhPP4-ldF0HwKtBxAo-245">
          <mxGeometry x="60" width="120" height="30" as="geometry">
            <mxRectangle width="120" height="30" as="alternateBounds" />
          </mxGeometry>
        </mxCell>
        <mxCell id="77vhPP4-ldF0HwKtBxAo-248" value="" style="shape=tableRow;horizontal=0;startSize=0;swimlaneHead=0;swimlaneBody=0;fillColor=none;collapsible=0;dropTarget=0;points=[[0,0.5],[1,0.5]];portConstraint=eastwest;top=0;left=0;right=0;bottom=0;html=1;" vertex="1" parent="77vhPP4-ldF0HwKtBxAo-232">
          <mxGeometry y="150" width="180" height="30" as="geometry" />
        </mxCell>
        <mxCell id="77vhPP4-ldF0HwKtBxAo-249" value="" style="shape=partialRectangle;connectable=0;fillColor=none;top=0;left=0;bottom=0;right=0;editable=1;overflow=hidden;html=1;whiteSpace=wrap;" vertex="1" parent="77vhPP4-ldF0HwKtBxAo-248">
          <mxGeometry width="60" height="30" as="geometry">
            <mxRectangle width="60" height="30" as="alternateBounds" />
          </mxGeometry>
        </mxCell>
        <mxCell id="77vhPP4-ldF0HwKtBxAo-250" value="price" style="shape=partialRectangle;connectable=0;fillColor=none;top=0;left=0;bottom=0;right=0;align=left;spacingLeft=6;overflow=hidden;html=1;whiteSpace=wrap;" vertex="1" parent="77vhPP4-ldF0HwKtBxAo-248">
          <mxGeometry x="60" width="120" height="30" as="geometry">
            <mxRectangle width="120" height="30" as="alternateBounds" />
          </mxGeometry>
        </mxCell>
        <mxCell id="77vhPP4-ldF0HwKtBxAo-251" value="" style="shape=tableRow;horizontal=0;startSize=0;swimlaneHead=0;swimlaneBody=0;fillColor=none;collapsible=0;dropTarget=0;points=[[0,0.5],[1,0.5]];portConstraint=eastwest;top=0;left=0;right=0;bottom=0;html=1;" vertex="1" parent="77vhPP4-ldF0HwKtBxAo-232">
          <mxGeometry y="180" width="180" height="30" as="geometry" />
        </mxCell>
        <mxCell id="77vhPP4-ldF0HwKtBxAo-252" value="" style="shape=partialRectangle;connectable=0;fillColor=none;top=0;left=0;bottom=0;right=0;editable=1;overflow=hidden;html=1;whiteSpace=wrap;" vertex="1" parent="77vhPP4-ldF0HwKtBxAo-251">
          <mxGeometry width="60" height="30" as="geometry">
            <mxRectangle width="60" height="30" as="alternateBounds" />
          </mxGeometry>
        </mxCell>
        <mxCell id="77vhPP4-ldF0HwKtBxAo-253" value="quantity" style="shape=partialRectangle;connectable=0;fillColor=none;top=0;left=0;bottom=0;right=0;align=left;spacingLeft=6;overflow=hidden;html=1;whiteSpace=wrap;" vertex="1" parent="77vhPP4-ldF0HwKtBxAo-251">
          <mxGeometry x="60" width="120" height="30" as="geometry">
            <mxRectangle width="120" height="30" as="alternateBounds" />
          </mxGeometry>
        </mxCell>
        <mxCell id="77vhPP4-ldF0HwKtBxAo-257" value="" style="shape=tableRow;horizontal=0;startSize=0;swimlaneHead=0;swimlaneBody=0;fillColor=none;collapsible=0;dropTarget=0;points=[[0,0.5],[1,0.5]];portConstraint=eastwest;top=0;left=0;right=0;bottom=0;html=1;" vertex="1" parent="77vhPP4-ldF0HwKtBxAo-232">
          <mxGeometry y="210" width="180" height="30" as="geometry" />
        </mxCell>
        <mxCell id="77vhPP4-ldF0HwKtBxAo-258" value="" style="shape=partialRectangle;connectable=0;fillColor=none;top=0;left=0;bottom=0;right=0;editable=1;overflow=hidden;html=1;whiteSpace=wrap;" vertex="1" parent="77vhPP4-ldF0HwKtBxAo-257">
          <mxGeometry width="60" height="30" as="geometry">
            <mxRectangle width="60" height="30" as="alternateBounds" />
          </mxGeometry>
        </mxCell>
        <mxCell id="77vhPP4-ldF0HwKtBxAo-259" value="publicationYear" style="shape=partialRectangle;connectable=0;fillColor=none;top=0;left=0;bottom=0;right=0;align=left;spacingLeft=6;overflow=hidden;html=1;whiteSpace=wrap;" vertex="1" parent="77vhPP4-ldF0HwKtBxAo-257">
          <mxGeometry x="60" width="120" height="30" as="geometry">
            <mxRectangle width="120" height="30" as="alternateBounds" />
          </mxGeometry>
        </mxCell>
      </root>
    </mxGraphModel>
  </diagram>
</mxfile>
